# xmcd CD database file
#
# Track frame offsets:
#	150
#	23202
#	41745
#	66915
#
# Disc length: 1196 seconds
#
# Revision: 1
# Processed by: cddbd v1.5.1PL0 Copyright (c) Steve Scherf et al.
# Submitted via: CDex 1.51
#
DISCID=3104aa04
DTITLE=aiko - キラキラ
DYEAR=2005
DGENRE=JPop
TTITLE0=キラキラ
TTITLE1=ある日のひまわり
TTITLE2=より道
TTITLE3=キラキラ(instrumental)
EXTD=YEAR: 2005
EXTT0=
EXTT1=
EXTT2=
EXTT3=
PLAYORDER=
